<?xml version="1.0" encoding="UTF-8" ?>
<!DOCTYPE svg PUBLIC "-//W3C//DTD SVG 1.1//EN" "http://www.w3.org/Graphics/SVG/1.1/DTD/svg11.dtd">
<svg width="846pt" height="846pt" viewBox="0 0 846 846" version="1.1" xmlns="http://www.w3.org/2000/svg">

<g id="#056369ff">
<path fill="#056369" opacity="1.00" d=" M 249.99 200.98 C 306.84 150.09 387.87 128.44 462.67 142.39 C 527.44 154.17 587.18 192.22 624.43 246.60 C 659.14 295.72 674.24 358.25 666.02 417.80 C 661.33 417.17 656.68 416.58 652.02 415.92 C 652.38 408.99 652.78 402.06 653.07 395.14 C 621.90 393.07 590.64 394.26 559.43 394.06 C 559.00 398.64 558.45 403.20 557.88 407.77 C 553.28 408.04 548.70 408.48 544.13 408.99 C 544.06 405.25 543.93 397.76 543.86 394.02 C 503.90 394.73 463.97 392.63 424.02 393.03 C 423.98 414.91 423.93 436.80 424.06 458.69 C 428.02 459.17 431.96 459.77 435.91 460.37 C 437.29 469.16 447.16 464.33 453.00 467.10 C 458.06 468.12 458.75 473.71 460.61 477.66 C 448.55 475.61 436.38 474.17 424.14 473.88 C 422.11 522.32 423.25 570.82 423.06 619.29 C 433.78 617.75 444.07 614.20 453.59 609.08 C 457.34 615.78 461.38 622.31 465.30 628.91 C 400.45 642.16 330.85 627.89 276.02 590.97 C 210.35 547.43 166.70 471.21 165.92 392.01 C 162.76 319.78 196.00 248.34 249.99 200.98 M 391.67 157.63 C 374.34 164.41 359.93 176.96 348.03 191.02 C 330.20 212.68 317.70 238.21 308.88 264.71 C 340.29 280.22 374.75 290.44 409.93 291.19 C 411.13 245.03 411.21 198.85 410.93 152.67 C 404.46 154.10 397.90 155.36 391.67 157.63 M 426.10 152.81 C 424.97 198.94 424.76 245.07 425.03 291.21 C 460.15 290.34 495.06 281.77 526.39 265.86 C 517.86 238.31 504.69 212.00 486.45 189.58 C 471.17 171.11 450.27 156.21 426.10 152.81 M 298.21 184.20 C 281.43 193.81 265.55 205.23 251.73 218.80 C 249.09 219.91 250.50 222.77 252.19 223.77 C 265.68 236.46 280.37 248.01 296.42 257.30 C 309.14 220.50 329.20 185.37 359.23 159.98 C 337.66 164.39 317.38 173.58 298.21 184.20 M 477.94 160.67 C 486.33 168.75 494.88 176.75 502.02 185.99 C 518.96 207.51 530.36 232.76 539.50 258.40 C 556.94 249.24 572.46 236.71 586.51 222.98 C 556.38 193.51 519.04 170.79 477.94 160.67 M 180.30 376.93 C 211.81 378.27 243.35 378.10 274.88 377.97 C 276.00 364.66 276.35 351.29 278.03 338.04 C 280.38 315.35 285.71 293.19 291.26 271.12 C 272.51 260.19 255.16 246.90 239.76 231.59 C 203.69 271.06 182.27 323.50 180.30 376.93 M 543.99 272.45 C 553.54 307.50 558.76 343.65 559.16 379.98 C 590.48 380.03 621.81 380.01 653.14 379.99 C 652.89 326.31 631.30 273.82 596.11 233.63 C 580.48 248.68 563.15 262.18 543.99 272.45 M 304.28 278.73 C 295.34 311.03 289.83 344.42 289.90 377.99 C 329.95 377.25 369.95 379.46 409.99 378.98 C 409.89 354.49 410.37 330.00 409.66 305.52 C 391.94 304.49 374.22 302.35 357.00 297.96 C 338.70 293.76 321.39 286.28 304.28 278.73 M 425.02 305.88 C 425.44 330.26 423.64 354.60 423.96 378.98 C 464.01 379.06 504.06 378.55 544.08 380.09 C 543.99 346.26 539.58 312.45 530.93 279.74 C 497.99 295.87 461.67 304.70 425.02 305.88 M 180.04 392.04 C 181.01 401.13 181.31 410.28 182.69 419.32 C 188.50 461.64 207.12 501.83 234.46 534.54 C 250.46 518.40 268.39 504.32 287.98 492.78 C 286.11 484.13 284.03 475.53 282.28 466.85 C 277.18 442.25 275.71 417.08 274.78 392.03 C 243.20 391.98 211.62 391.95 180.04 392.04 M 289.93 392.02 C 289.76 423.62 293.94 455.12 301.16 485.85 C 334.56 469.10 371.60 459.85 408.95 458.85 C 408.60 436.89 409.82 414.97 410.09 393.02 C 386.41 392.74 362.71 393.52 339.05 392.59 C 322.69 391.61 306.30 392.03 289.93 392.02 M 358.99 479.99 C 340.43 484.02 322.76 491.25 305.67 499.40 C 310.29 517.83 318.12 535.27 327.04 551.99 C 337.42 570.99 350.55 588.90 368.01 601.99 C 379.44 611.26 393.50 616.77 407.93 619.21 C 407.96 607.47 407.88 595.72 408.21 583.99 C 409.72 547.02 408.76 510.02 408.96 473.04 C 392.20 474.39 375.34 475.83 358.99 479.99 M 243.88 545.36 C 274.43 576.85 313.31 600.62 356.02 611.25 C 348.47 604.04 340.87 596.83 334.10 588.88 C 314.72 564.98 301.97 536.56 292.41 507.52 C 274.22 517.27 258.42 530.85 243.88 545.36 Z" />
<path fill="#056369" opacity="1.00" d=" M 538.42 419.47 C 550.57 418.35 562.81 416.11 575.01 417.83 C 609.99 421.88 645.11 424.61 680.03 429.07 C 679.95 437.81 679.94 446.56 679.91 455.31 C 673.58 457.07 666.53 458.84 662.24 464.22 C 656.82 470.75 656.07 481.00 660.98 488.02 C 665.05 494.48 672.83 496.99 679.83 498.82 C 680.00 516.88 680.16 534.95 680.05 553.01 C 680.65 573.46 671.86 592.72 662.20 610.22 C 638.18 650.41 602.09 681.74 563.75 707.87 C 529.96 684.60 497.53 658.03 473.99 624.03 C 461.36 605.48 450.84 584.79 447.64 562.34 C 446.26 541.13 447.17 519.86 447.08 498.64 C 458.93 497.45 471.06 488.05 469.67 475.13 C 468.73 463.62 457.57 456.80 447.10 455.20 C 447.07 446.47 447.05 437.74 446.98 429.01 C 477.43 425.57 507.95 422.75 538.42 419.47 M 458.97 439.03 C 459.06 441.52 459.16 444.02 459.26 446.53 C 472.77 451.70 484.12 465.55 481.56 480.59 C 480.60 493.26 470.20 502.69 459.16 507.51 C 459.06 525.44 458.27 543.42 459.67 561.33 C 462.27 580.32 470.89 597.86 481.28 613.74 C 502.43 646.18 532.34 671.82 563.76 693.94 C 591.33 674.34 617.66 652.23 637.86 624.88 C 651.63 606.70 663.11 586.02 667.40 563.42 C 668.82 544.84 667.85 526.16 667.75 507.54 C 663.09 504.92 658.24 502.41 654.69 498.29 C 643.65 488.35 642.71 469.49 652.31 458.29 C 656.43 453.27 662.17 450.07 667.33 446.29 C 668.03 443.96 668.46 441.58 668.62 439.15 C 634.48 434.88 600.17 431.92 565.96 428.30 C 530.25 431.16 494.62 435.33 458.97 439.03 Z" />
<path fill="#056369" opacity="1.00" d=" M 477.99 446.96 C 506.60 443.50 535.31 440.92 563.97 437.88 C 564.02 519.28 564.02 600.68 563.97 682.08 C 539.79 664.68 516.79 645.11 498.60 621.36 C 486.39 605.77 476.52 588.15 470.89 569.12 C 467.19 550.80 469.45 531.95 469.18 513.41 C 481.75 506.25 491.42 492.90 491.12 478.01 C 492.35 466.04 485.75 455.42 477.99 446.96 Z" />
</g>
</svg>
