<?xml version="1.0" encoding="UTF-8" ?>
<!DOCTYPE svg PUBLIC "-//W3C//DTD SVG 1.1//EN" "http://www.w3.org/Graphics/SVG/1.1/DTD/svg11.dtd">
<svg width="846pt" height="846pt" viewBox="0 0 846 846" version="1.1" xmlns="http://www.w3.org/2000/svg">
<g id="#55657dff">
</g>
<g id="#056369ff">
<path fill="#056369" opacity="1.00" d=" M 323.06 176.07 C 329.10 169.68 338.16 171.25 345.99 170.90 C 401.01 171.13 456.03 170.92 511.06 170.97 C 519.33 171.01 527.37 178.13 525.92 186.95 C 526.30 220.30 525.77 253.65 526.12 287.01 C 525.49 293.88 527.55 301.94 522.76 307.76 C 519.94 311.80 514.64 312.96 510.00 312.80 C 493.67 313.47 477.33 312.85 460.99 313.00 C 460.98 317.66 461.01 322.34 461.00 327.01 C 479.56 327.29 498.16 326.22 516.69 327.46 C 525.95 328.81 529.68 342.49 522.34 348.33 C 518.74 353.01 512.04 351.41 507.03 352.03 C 481.35 352.17 455.68 351.87 430.00 352.01 C 429.99 359.00 429.99 366.00 430.00 373.00 C 493.35 373.03 556.71 372.98 620.06 372.96 C 624.17 372.72 628.70 375.29 629.33 379.62 C 630.16 386.70 630.03 393.86 630.21 400.99 C 660.16 401.21 690.11 400.65 720.06 401.08 C 727.87 401.55 733.93 409.20 732.92 416.95 C 733.05 453.63 733.23 490.33 732.82 527.01 C 733.87 534.54 727.91 541.55 720.58 542.40 C 702.69 543.82 684.72 542.73 666.81 543.00 C 667.00 547.67 667.14 552.39 667.50 557.07 C 676.90 556.95 686.30 557.00 695.71 556.99 C 695.40 560.54 695.13 564.13 694.91 567.70 C 697.04 567.24 701.29 566.31 703.42 565.84 C 704.20 563.75 705.75 559.58 706.53 557.49 C 713.86 557.27 722.87 554.98 729.25 559.76 C 737.65 567.05 731.52 583.07 719.91 581.64 C 666.62 582.63 613.30 581.57 560.00 582.11 C 550.73 581.81 541.12 582.93 532.20 579.85 C 523.42 574.46 525.11 558.59 536.18 557.41 C 554.76 556.26 573.40 557.27 592.01 557.00 C 591.98 552.31 591.99 547.66 592.00 542.99 C 574.98 542.83 557.96 543.41 540.95 542.97 C 536.82 542.85 533.25 540.29 530.10 537.91 C 525.10 530.59 526.34 521.34 525.93 513.01 C 526.00 484.67 526.02 456.33 525.90 427.99 C 526.10 420.21 525.20 410.47 531.77 404.77 C 535.51 400.35 541.85 401.34 546.97 400.98 C 570.31 400.78 593.65 401.14 617.00 400.99 C 617.00 398.49 617.00 393.51 617.00 391.01 C 487.67 390.99 358.33 390.99 229.00 391.01 C 229.00 393.50 229.00 398.49 229.00 400.99 C 254.00 401.25 279.01 400.54 304.01 401.16 C 310.32 400.40 316.24 404.95 318.33 410.66 C 320.59 418.90 319.86 427.55 320.11 436.00 C 319.84 464.34 320.17 492.69 320.02 521.03 C 319.89 526.72 319.64 533.24 315.77 537.79 C 312.14 541.26 307.01 543.04 302.01 542.82 C 286.01 543.47 270.00 542.85 253.99 543.00 C 253.99 547.61 254.01 552.28 254.00 556.91 C 262.96 557.11 272.03 556.36 280.96 557.43 C 281.61 559.54 282.90 563.75 283.55 565.86 C 285.68 566.37 289.93 567.40 292.06 567.91 C 291.91 564.13 291.80 560.47 291.51 556.73 C 298.33 557.06 305.32 556.57 312.04 558.02 C 319.71 560.16 321.48 571.08 316.77 576.78 C 313.48 582.03 306.39 581.38 301.04 581.93 C 247.70 582.22 194.34 581.79 140.99 582.11 C 133.37 581.89 125.49 582.48 118.18 579.87 C 110.03 574.33 111.39 558.61 122.18 557.40 C 140.76 556.16 159.38 557.62 177.97 556.93 C 178.71 552.31 178.91 547.64 179.34 543.00 C 161.90 542.77 144.44 543.53 127.01 542.84 C 119.19 542.19 111.97 535.32 113.18 527.01 C 112.77 490.33 112.95 453.63 113.08 416.95 C 111.82 408.02 120.03 399.82 128.95 401.08 C 157.89 400.67 186.84 401.20 215.79 400.99 C 216.39 393.41 214.97 385.45 217.08 378.08 C 219.34 372.12 226.92 373.11 231.97 372.97 C 293.31 372.97 354.66 373.04 416.00 372.99 C 416.01 365.99 416.00 358.99 416.00 352.01 C 389.32 351.88 362.64 352.15 335.96 352.05 C 329.91 352.99 323.20 350.02 320.64 344.35 C 317.76 337.59 321.87 328.50 329.41 327.55 C 347.90 326.17 366.48 327.29 385.01 327.00 C 384.99 322.32 384.99 317.66 385.00 312.99 C 367.98 312.84 350.97 313.39 333.96 312.96 C 326.38 312.79 319.12 305.93 320.18 298.01 C 319.56 264.68 320.32 231.33 319.87 198.00 C 320.42 190.70 318.32 182.40 323.06 176.07 M 349.40 186.53 C 344.24 188.02 340.89 193.71 340.96 198.94 C 341.26 228.82 340.26 258.74 341.54 288.59 C 341.96 296.07 350.49 298.85 356.96 298.95 C 396.97 299.19 436.99 298.86 477.01 299.07 C 485.24 298.53 494.66 300.12 501.72 294.74 C 505.38 290.86 505.03 284.92 505.10 280.01 C 504.82 253.34 505.37 226.66 504.84 199.99 C 505.96 193.40 500.74 186.38 494.07 186.03 C 445.85 186.27 397.58 185.28 349.40 186.53 M 490.51 302.78 C 490.46 304.92 490.46 307.07 490.51 309.22 C 491.46 308.29 492.48 307.42 493.34 306.39 C 493.50 304.73 491.34 303.98 490.51 302.78 M 497.66 305.61 C 497.50 307.27 499.64 308.01 500.49 309.22 C 500.52 307.07 500.52 304.92 500.49 302.78 C 499.52 303.70 498.51 304.58 497.66 305.61 M 489.00 328.00 C 489.00 330.50 489.00 335.50 489.00 338.00 C 492.03 338.03 494.92 337.95 498.00 338.00 C 498.00 335.50 498.00 330.50 498.00 328.00 C 495.03 328.01 491.92 327.94 489.00 328.00 M 146.37 415.51 C 139.00 415.15 133.75 422.10 133.99 428.95 C 134.02 457.30 133.69 485.66 134.18 514.01 C 133.31 520.54 138.34 527.41 144.99 527.85 C 178.32 528.41 211.66 527.75 245.00 528.01 C 259.85 527.84 274.76 528.73 289.58 527.42 C 295.01 526.12 298.15 520.36 298.02 515.05 C 297.81 485.10 298.60 455.11 297.60 425.18 C 296.67 417.05 287.92 414.49 281.03 415.08 C 236.16 415.20 191.23 414.33 146.37 415.51 M 559.42 415.51 C 552.08 415.46 547.03 422.96 548.08 429.95 C 547.78 456.64 548.01 483.34 547.98 510.03 C 548.49 514.42 547.30 519.79 550.52 523.44 C 553.35 527.24 558.35 528.67 562.96 528.03 C 606.31 528.02 649.67 528.01 693.03 528.02 C 698.02 527.45 704.74 528.93 708.34 524.33 C 714.21 517.56 711.53 508.07 712.13 500.00 C 711.49 475.14 712.92 450.23 711.44 425.41 C 710.79 419.69 705.38 415.47 699.72 415.40 C 676.17 414.26 652.57 415.34 629.00 415.01 C 605.81 415.33 582.58 414.21 559.42 415.51 M 282.76 533.76 C 283.24 535.37 283.73 536.97 284.24 538.58 C 285.37 537.48 286.49 536.37 287.58 535.24 C 285.98 534.73 284.37 534.23 282.76 533.76 M 289.51 535.27 C 290.88 536.39 292.25 537.52 293.64 538.62 C 293.77 536.96 293.89 535.30 294.02 533.65 C 292.51 534.18 291.01 534.72 289.51 535.27 M 696.76 533.82 C 697.23 535.39 697.72 536.96 698.22 538.53 C 699.27 537.37 700.32 536.21 701.37 535.04 C 699.83 534.62 698.29 534.21 696.76 533.82 M 703.42 535.24 C 704.50 536.37 705.62 537.48 706.76 538.58 C 707.25 536.97 707.75 535.37 708.24 533.76 C 706.62 534.23 705.01 534.73 703.42 535.24 Z" />
</g>
</svg>
