<?xml version="1.0" encoding="UTF-8" ?>
<!DOCTYPE svg PUBLIC "-//W3C//DTD SVG 1.1//EN" "http://www.w3.org/Graphics/SVG/1.1/DTD/svg11.dtd">
<svg width="846pt" height="846pt" viewBox="0 0 846 846" version="1.1" xmlns="http://www.w3.org/2000/svg">
<g id="#55657dff">
</g>
<g id="#056369ff">
<path fill="#056369" opacity="1.00" d=" M 308.43 106.52 C 354.93 105.22 401.48 106.46 448.00 105.92 C 460.07 106.53 473.72 104.27 484.23 111.79 C 496.07 119.61 500.58 134.44 500.77 148.02 C 501.18 170.03 501.20 192.05 500.96 214.06 C 499.92 221.63 491.35 224.09 485.20 226.02 C 484.86 206.68 485.02 187.34 484.99 168.01 C 420.33 167.99 355.67 167.99 291.01 168.01 C 290.96 201.97 291.02 235.93 291.01 269.89 C 285.65 268.32 280.28 266.85 274.95 265.19 C 275.06 228.45 274.97 191.72 274.96 154.98 C 274.85 143.49 276.06 131.27 282.38 121.37 C 288.01 112.57 297.95 106.73 308.43 106.52 M 350.49 132.81 C 349.48 135.54 348.74 138.36 348.31 141.24 C 374.70 142.85 401.27 142.25 427.68 141.21 C 427.91 137.88 427.31 133.18 423.01 133.10 C 398.85 132.49 374.66 133.43 350.49 132.81 Z" />
<path fill="#056369" opacity="1.00" d=" M 498.57 234.60 C 501.70 229.00 506.79 223.09 514.00 224.02 C 521.98 223.30 528.47 229.60 531.65 236.33 C 537.99 250.45 539.43 266.03 543.00 280.94 C 545.32 297.10 558.25 308.48 565.80 322.20 C 573.16 333.54 574.35 347.30 578.04 360.00 C 581.38 372.81 586.97 384.88 590.33 397.68 C 592.21 404.55 593.94 411.53 597.15 417.95 C 603.93 432.19 603.46 448.35 605.37 463.67 C 607.63 482.28 605.50 501.24 609.33 519.68 C 612.22 536.79 615.98 553.94 623.19 569.82 C 629.92 586.59 639.23 602.10 648.36 617.64 C 589.07 653.15 530.10 689.19 470.95 724.92 C 462.82 729.31 455.49 735.26 446.93 738.81 C 436.72 724.03 429.46 707.11 417.57 693.49 C 397.55 679.10 378.01 663.93 360.70 646.30 C 345.07 631.44 333.12 613.31 321.86 595.06 C 370.25 594.81 418.65 595.21 467.04 594.94 C 490.35 595.32 509.38 573.52 509.78 550.99 C 510.46 502.66 509.65 454.32 510.07 405.99 C 510.14 395.15 512.68 384.40 511.57 373.54 C 510.54 365.52 510.66 357.35 509.40 349.37 C 506.77 341.70 501.26 335.37 498.10 327.93 C 491.50 312.20 489.03 294.98 488.92 278.01 C 488.27 263.08 490.99 247.61 498.57 234.60 Z" />
<path fill="#056369" opacity="1.00" d=" M 335.40 275.30 C 341.62 255.44 359.61 238.78 381.02 238.10 C 393.25 237.08 406.54 238.00 417.09 244.89 C 433.18 254.40 442.19 272.83 444.15 290.97 C 445.30 301.56 445.01 312.24 445.11 322.87 C 449.39 322.93 453.70 323.00 457.99 323.07 C 458.01 364.05 458.01 405.02 457.99 445.99 C 411.33 446.00 364.67 446.02 318.02 445.98 C 317.99 405.01 317.98 364.04 318.01 323.07 C 322.30 323.01 326.62 322.99 330.93 322.94 C 331.34 307.04 329.43 290.45 335.40 275.30 M 352.15 273.09 C 343.60 287.96 345.02 306.03 344.84 322.52 C 373.58 323.41 402.40 323.41 431.14 322.33 C 430.69 304.60 432.50 284.62 421.73 269.26 C 406.22 245.68 364.69 247.47 352.15 273.09 M 375.33 376.33 C 372.61 381.78 374.58 388.32 378.11 392.93 C 382.53 398.18 379.88 405.93 383.37 411.56 C 385.78 413.07 388.55 412.86 391.21 414.00 C 394.97 406.14 393.54 396.53 399.60 389.71 C 406.03 381.50 398.59 366.84 388.00 367.98 C 382.05 366.81 377.88 371.79 375.33 376.33 Z" />
<path fill="#056369" opacity="1.00" d=" M 235.43 269.50 C 242.26 268.20 249.13 269.34 255.70 271.27 C 269.35 275.00 283.14 278.27 296.65 282.50 C 304.02 286.37 310.79 292.79 312.95 301.08 C 314.66 310.32 315.27 321.21 308.88 328.93 C 303.40 337.69 292.93 342.91 282.61 341.38 C 269.64 339.04 257.21 334.44 244.36 331.60 C 234.76 329.47 224.42 325.88 219.10 316.93 C 207.20 301.11 215.44 273.81 235.43 269.50 Z" />
<path fill="#056369" opacity="1.00" d=" M 250.44 337.50 C 257.70 335.96 266.16 338.05 270.64 344.29 C 274.23 349.78 276.46 356.00 278.98 362.02 C 282.74 371.65 288.55 381.04 286.84 391.88 C 283.84 405.89 266.58 415.60 253.37 408.59 C 248.85 406.65 246.50 401.94 244.19 397.88 C 240.58 389.98 237.68 381.77 234.07 373.87 C 231.49 368.36 230.59 362.16 231.16 356.12 C 233.18 346.79 241.23 339.46 250.44 337.50 Z" />
<path fill="#056369" opacity="1.00" d=" M 485.13 345.50 C 490.36 347.31 495.46 349.60 499.85 353.03 C 502.25 414.32 500.42 475.69 501.03 537.01 C 501.98 552.46 497.70 570.08 484.24 579.23 C 475.15 585.55 463.47 584.60 453.01 585.04 C 409.67 585.01 366.33 584.95 322.99 585.06 C 312.48 584.68 300.78 585.82 291.77 579.22 C 281.35 572.33 276.33 559.77 275.85 547.63 C 286.34 543.14 293.89 533.82 297.12 523.04 C 359.75 522.93 422.37 523.05 484.99 522.99 C 485.10 463.82 484.81 404.66 485.13 345.50 Z" />
<path fill="#056369" opacity="1.00" d=" M 229.25 448.90 C 221.64 432.83 237.22 413.66 254.06 414.03 C 263.06 413.63 270.62 420.10 273.85 428.07 C 278.47 438.39 284.46 448.17 288.11 458.90 C 291.80 470.73 284.41 481.76 275.31 488.49 C 278.46 495.63 282.33 502.47 285.08 509.77 C 290.57 524.38 276.80 539.71 262.27 539.66 C 257.21 539.00 250.88 537.74 248.18 532.83 C 243.68 525.11 239.90 517.00 235.90 509.02 C 233.12 503.63 232.38 497.23 233.31 491.31 C 235.35 486.14 238.80 481.58 242.81 477.77 C 238.28 468.15 233.37 458.70 229.25 448.90 Z" />
</g>
</svg>
