<?xml version="1.0" encoding="UTF-8" ?>
<!DOCTYPE svg PUBLIC "-//W3C//DTD SVG 1.1//EN" "http://www.w3.org/Graphics/SVG/1.1/DTD/svg11.dtd">
<svg width="846pt" height="846pt" viewBox="0 0 846 846" version="1.1" xmlns="http://www.w3.org/2000/svg">
<g id="#55657dff">
</g>
<g id="#056369ff">
<path fill="#056369" opacity="1.00" d=" M 245.44 177.55 C 250.67 165.69 262.55 155.74 276.03 156.23 C 341.02 155.62 406.03 156.25 471.02 155.93 C 483.95 155.03 497.22 162.35 503.01 174.00 C 508.55 182.89 507.54 194.01 508.04 203.99 C 507.79 275.15 508.35 346.32 507.76 417.48 C 479.90 420.67 452.00 423.51 424.08 426.17 C 423.88 440.29 423.91 454.42 424.07 468.55 C 430.48 470.10 440.32 467.89 444.06 474.97 C 446.95 479.90 443.63 485.96 438.68 487.63 C 433.97 489.12 428.89 488.75 424.04 489.33 C 424.11 511.54 423.65 533.76 424.15 555.97 C 426.77 578.58 437.25 599.46 450.02 617.99 C 459.78 632.78 472.46 645.29 484.33 658.36 C 476.59 659.40 468.81 660.15 461.01 660.10 C 399.33 659.79 337.65 660.20 275.98 659.92 C 257.70 659.22 242.02 642.49 243.05 624.04 C 242.89 482.36 243.12 340.67 242.93 198.98 C 243.31 191.85 242.49 184.26 245.44 177.55 M 289.42 240.50 C 280.12 240.42 274.35 252.70 280.01 260.01 C 283.53 266.85 292.72 265.54 298.97 265.99 C 352.27 265.79 405.60 266.47 458.89 265.67 C 469.87 267.07 476.99 252.38 469.33 244.67 C 464.21 238.87 455.87 239.92 449.01 239.89 C 395.82 240.50 342.58 239.22 289.42 240.50 M 286.43 290.54 C 280.33 292.28 276.17 299.36 278.40 305.58 C 279.44 312.05 286.95 315.55 292.95 314.96 C 341.30 315.17 389.65 314.82 438.00 315.08 C 446.19 315.06 454.41 315.28 462.59 314.47 C 469.43 313.68 474.34 305.42 472.03 299.00 C 471.06 291.64 462.33 289.20 456.04 289.90 C 402.68 290.10 349.32 289.97 295.97 289.96 C 293.58 290.11 288.81 290.39 286.43 290.54 M 287.43 339.55 C 282.56 340.58 278.49 345.06 278.00 350.02 C 276.45 358.38 284.85 365.80 292.96 364.05 C 347.99 363.91 403.02 364.11 458.04 363.96 C 467.94 366.14 476.46 354.39 471.01 346.00 C 468.04 338.40 458.67 338.69 452.03 338.93 C 397.17 339.47 342.25 338.18 287.43 339.55 M 369.43 506.46 C 353.66 509.45 344.28 528.83 352.07 542.95 C 358.23 556.32 376.97 561.71 388.90 552.85 C 400.74 546.27 404.52 529.18 397.00 518.01 C 391.88 508.31 379.84 504.08 369.43 506.46 M 370.43 575.44 C 362.14 577.08 355.85 585.15 355.47 593.49 C 354.66 604.07 364.09 614.80 375.00 613.91 C 387.74 614.94 398.19 601.02 394.02 589.00 C 391.84 578.81 380.19 573.06 370.43 575.44 Z" />
<path fill="#056369" opacity="1.00" d=" M 537.42 424.51 C 543.78 423.67 550.10 424.78 556.42 425.43 C 587.61 428.76 618.83 431.77 650.01 435.13 C 649.95 443.00 649.98 450.88 650.01 458.75 C 642.88 460.74 635.04 463.26 630.94 469.95 C 626.27 478.23 628.97 490.88 638.06 494.89 C 641.79 496.94 645.93 497.96 649.99 499.17 C 649.93 516.43 650.32 533.70 649.88 550.97 C 647.57 576.50 635.15 599.82 619.97 619.97 C 598.20 647.75 571.02 670.88 541.70 690.35 C 507.64 667.29 474.98 640.26 452.97 605.02 C 444.55 591.31 437.45 576.34 434.68 560.39 C 433.13 539.87 434.22 519.25 434.12 498.69 C 445.78 497.99 457.92 487.65 454.02 475.01 C 452.05 465.60 442.58 461.17 434.15 459.07 C 434.12 451.07 434.06 443.07 433.91 435.08 C 468.41 431.55 502.92 428.05 537.42 424.51 M 535.01 434.90 C 505.03 438.41 474.94 440.90 444.93 444.18 C 445.09 446.52 445.27 448.87 445.44 451.22 C 452.38 454.98 459.77 459.42 462.95 467.03 C 467.87 476.24 466.31 487.89 460.00 496.00 C 456.44 501.32 450.30 503.90 445.17 507.37 C 445.04 522.56 444.49 537.78 445.23 552.97 C 445.71 566.89 451.76 579.83 458.01 592.01 C 476.15 625.19 504.89 650.88 535.02 673.00 C 537.55 674.25 540.82 678.42 543.97 675.99 C 555.79 668.03 566.89 658.98 577.58 649.56 C 599.89 629.03 620.68 605.48 632.02 576.97 C 642.06 554.94 637.04 530.11 637.67 506.77 C 631.79 503.53 625.09 500.31 621.96 494.04 C 616.70 486.49 616.04 476.26 620.00 467.99 C 623.05 460.01 630.60 455.29 637.77 451.46 C 637.87 449.01 637.96 446.57 638.05 444.13 C 608.03 441.05 578.01 437.98 547.99 434.89 C 543.68 434.28 539.31 434.28 535.01 434.90 Z" />
</g>
</svg>
